<svg width="7" height="7" viewBox="0 0 7 7" fill="none" xmlns="http://www.w3.org/2000/svg">
<path d="M6.04 5.694C6.05467 5.75267 5.85667 5.936 5.446 6.244C5.41667 6.27333 5.39467 6.27333 5.38 6.244C5.35067 6.2 5.27733 6.12667 5.16 6.024C5.05733 5.90667 4.99133 5.84067 4.962 5.826C4.90333 5.76733 4.81533 5.68667 4.698 5.584C4.58067 5.46667 4.324 5.21733 3.928 4.836C3.54667 4.45467 3.30467 4.22 3.202 4.132C3.09933 4.044 3.03333 3.99267 3.004 3.978C2.94533 4.00733 2.85733 4.08067 2.74 4.198C2.62267 4.31533 2.35133 4.572 1.926 4.968C1.50067 5.364 1.21467 5.628 1.068 5.76C0.921333 5.892 0.796667 5.99467 0.694 6.068C0.664667 6.09733 0.635333 6.11933 0.606 6.134C0.591333 6.14867 0.569333 6.156 0.54 6.156L-0.00999996 5.672C0.034 5.59867 0.114667 5.496 0.232 5.364C0.349333 5.232 0.481333 5.08533 0.628 4.924C0.774667 4.76267 1.05333 4.47667 1.464 4.066C1.87467 3.64067 2.13867 3.362 2.256 3.23C2.27067 3.21533 2.234 3.14933 2.146 3.032C1.794 2.68 1.53733 2.416 1.376 2.24C1.22933 2.04933 1.068 1.85867 0.892 1.668C0.730667 1.46267 0.576667 1.27933 0.43 1.118C0.283333 0.956666 0.195333 0.839333 0.166 0.766C0.224667 0.751333 0.290667 0.692666 0.364 0.589999C0.452 0.487332 0.547333 0.399332 0.65 0.325999L0.672 0.303999C0.716 0.318666 0.818667 0.399332 0.98 0.546C1.14133 0.692666 1.31733 0.853999 1.508 1.03C1.69867 1.206 1.97 1.47 2.322 1.822C2.68867 2.174 2.90133 2.372 2.96 2.416C2.97467 2.40133 3.18 2.21067 3.576 1.844C3.98667 1.46267 4.29467 1.17667 4.5 0.985999C4.70533 0.795333 4.88867 0.626666 5.05 0.479999C5.21133 0.333333 5.28467 0.267333 5.27 0.281999C5.29933 0.326 5.38 0.414 5.512 0.546C5.644 0.663333 5.732 0.743999 5.776 0.787999C5.76133 0.919999 5.688 1.06667 5.556 1.228C5.424 1.38933 5.27 1.55067 5.094 1.712C4.93267 1.87333 4.66867 2.13 4.302 2.482C3.95 2.834 3.752 3.06867 3.708 3.186C3.72267 3.186 3.94267 3.406 4.368 3.846C4.79333 4.27133 5.094 4.594 5.27 4.814C5.446 5.01933 5.60733 5.21733 5.754 5.408C5.91533 5.584 6.01067 5.67933 6.04 5.694Z" fill="#FF0000"/>
</svg>
