<svg id="Layer_1" data-name="Layer 1" xmlns="http://www.w3.org/2000/svg" viewBox="0 0 16.09 41.87"><defs><style>.cls-1{fill:#ff831d;}</style></defs><path class="cls-1" d="M6,24.79c0-.4-.58-16.89-.64-19.37A2.44,2.44,0,0,1,6.72,3.17a3.06,3.06,0,0,1,2.66,0,2.46,2.46,0,0,1,1.51,2.28c-.06,2.51-.75,19.38-.75,19.38Z"/><path d="M12.48,39a1.39,1.39,0,0,1-1.39-1.39V28.88H9.43v8.71a1.39,1.39,0,0,1-2.78.09v-8.8H5v8.71a1.39,1.39,0,0,1-2.77,0h0s0-5.89,0-8.72A4.81,4.81,0,0,1,4.9,25.3,7.26,7.26,0,0,1,6,24.78h4.14a8.11,8.11,0,0,1,1.84,1,4.3,4.3,0,0,1,1.89,3.06c0,2.83,0,8.72,0,8.72A1.39,1.39,0,0,1,12.48,39Z"/></svg>