<svg width="117" height="34" viewBox="0 0 117 34" fill="none" xmlns="http://www.w3.org/2000/svg">
<path d="M3.87661 32.3C3.17071 31.8839 2.72871 31.0529 3.17071 30.0832L9.50561 17.1265C10.1023 15.9025 11.6922 15.8563 12.2434 17.1265L18.4691 30.0832C19.3791 31.8839 16.7037 33.3159 15.9081 31.5153L14.937 29.4821H6.79121L5.84091 31.5153C5.48861 32.3 4.67091 32.4619 3.87661 32.3ZM13.3666 26.4343L10.8719 20.7223L8.15751 26.4343H13.3666Z" fill="black"/>
<path d="M20.4776 17.5984C20.4841 17.2183 20.634 16.8563 20.8945 16.5914C21.1551 16.3264 21.5052 16.18 21.8686 16.184C22.2178 16.196 22.5489 16.3498 22.7916 16.6129C23.0342 16.8759 23.1695 17.2274 23.1686 17.593V29.1639H29.1733C31.3378 29.1639 31.3833 32.1898 29.1733 32.1898H21.8686C21.0964 32.1898 20.4776 31.6119 20.4776 30.7809V17.5984Z" fill="black"/>
<path d="M33.0837 17.5984C33.0902 17.2183 33.2401 16.8563 33.5006 16.5914C33.7612 16.3264 34.1113 16.18 34.4747 16.184C34.8239 16.196 35.155 16.3498 35.3976 16.6129C35.6403 16.8759 35.7755 17.2274 35.7747 17.593V29.1639H41.782C43.9452 29.1639 43.992 32.1898 41.782 32.1898H34.4747C33.7025 32.1898 33.0837 31.6119 33.0837 30.7809V17.5984Z" fill="black"/>
<path d="M80.4089 30.8108C78.8489 32.1708 76.921 32.7501 74.9788 32.7501C70.3417 32.7501 67.0488 29.9785 67.0488 24.4827C67.0488 19.8165 70.5146 16.1867 75.1738 16.1867C76.9171 16.1867 78.8385 16.8096 80.2074 18.2185C81.5529 19.6044 79.6107 21.6607 78.286 20.4367C77.4696 19.6044 76.3217 18.9815 75.1738 18.9815C72.5023 18.9815 69.9192 21.2214 69.9192 24.4786C69.9192 27.8963 72.0824 29.9744 74.9749 29.9744C76.3217 29.9744 77.4696 29.5596 78.286 28.9353V26.0984H74.9788C73.0132 26.0984 73.2121 23.2805 74.9788 23.2805H79.3988C80.2165 23.2805 80.9666 23.9278 80.9666 24.6405V29.5609C80.9614 29.9785 80.7846 30.3715 80.4089 30.8108Z" fill="black"/>
<path d="M87.1 30.6721C87.1 32.6808 84.1633 32.7502 84.1633 30.7183V17.5998C84.1597 17.4156 84.1913 17.2326 84.2563 17.0615C84.3213 16.8903 84.4184 16.7345 84.5418 16.6032C84.6653 16.4719 84.8126 16.3678 84.9751 16.297C85.1376 16.2261 85.312 16.19 85.488 16.1908H91.3601C96.9683 16.1908 98.1201 24.0434 93.4401 26.0059L96.3755 29.7486C97.5234 31.5262 95.2276 33.2357 93.9055 31.4799L90.5723 26.4914H87.1V30.6721ZM87.1 23.8354H91.3601C94.2305 23.8354 94.4073 18.9856 91.3601 18.9856H87.1V23.8354Z" fill="black"/>
<path d="M106.47 16.1908C102.57 16.1908 98.54 18.855 98.54 24.2719C98.54 29.6684 102.58 32.3762 106.47 32.2007C110.154 32.2007 114.01 29.4916 114.01 24.2719C114.01 19.0522 110.154 16.3894 106.47 16.1908ZM106.239 29.4916C103.88 29.4916 101.313 27.7304 101.313 24.2719C101.313 20.793 103.88 19.0536 106.239 19.0536C108.659 19.0536 111.249 20.793 111.249 24.2719C111.249 27.7304 108.659 29.4916 106.239 29.4916Z" fill="black"/>
<path d="M48.2443 15.096L45.6547 19.5704C45.2361 19.3283 27.8447 9.24801 25.2447 7.70169C22.7006 6.01393 24.2047 3.07769 24.2047 3.07769C24.2047 3.07769 26.0572 0.149607 28.678 1.70545C31.2312 3.40137 48.1975 15.1286 48.1975 15.1286L48.2443 15.096Z" fill="#FF831D"/>
<path d="M64.3656 21.7899C64.1363 22.1876 63.7655 22.474 63.3347 22.5862C62.9038 22.6983 62.448 22.6272 62.0672 22.3883L53.0634 16.728L52.0364 18.515L61.0415 24.174C61.4135 24.4175 61.6792 24.804 61.7815 25.2503C61.8838 25.6967 61.8146 26.1672 61.5887 26.5607C61.3628 26.9542 60.9983 27.2392 60.5736 27.3545C60.1489 27.4697 59.6979 27.4059 59.3177 27.1769L50.31 21.5179L49.283 23.3036L58.2907 28.968C58.4945 29.0776 58.6746 29.2299 58.8199 29.4153C58.9651 29.6008 59.0724 29.8155 59.135 30.0461C59.1977 30.2767 59.2144 30.5184 59.1841 30.756C59.1538 30.9937 59.0771 31.2223 58.9589 31.4276C58.8407 31.633 58.6834 31.8108 58.4967 31.9499C58.3101 32.0891 58.0982 32.1867 57.874 32.2366C57.6498 32.2865 57.4183 32.2877 57.1937 32.2401C56.969 32.1925 56.7562 32.0972 56.5682 31.96L47.5488 26.2929C45.773 24.9859 45.4922 22.6209 45.5247 21.0678C45.5323 20.566 45.5784 20.0658 45.6625 19.5718H45.6547L48.2443 15.096C48.9226 14.5573 49.6657 14.1143 50.4543 13.7782C51.7023 13.2491 53.2974 12.939 54.7768 13.7238L63.7936 19.3895C64.173 19.6292 64.4462 20.0163 64.5534 20.4662C64.6606 20.916 64.5931 21.392 64.3656 21.7899Z" fill="black"/>
</svg>
