<svg id="Layer_1" data-name="Layer 1" xmlns="http://www.w3.org/2000/svg" viewBox="0 0 340 166"><defs><style>.cls-1{fill:#f6f5f5;}.cls-2,.cls-34,.cls-44,.cls-5,.cls-51,.cls-7,.cls-8,.cls-9{fill:none;}.cls-2,.cls-32,.cls-7,.cls-8,.cls-9{stroke:#d8e0e7;}.cls-2,.cls-32,.cls-34,.cls-4,.cls-44,.cls-45,.cls-46,.cls-49,.cls-5,.cls-50,.cls-51,.cls-6,.cls-7,.cls-8,.cls-9{stroke-miterlimit:10;}.cls-3{fill:#f8f0de;}.cls-31,.cls-32,.cls-4,.cls-6{fill:#d8e0e7;}.cls-4,.cls-6{stroke:#606060;}.cls-4{stroke-width:0.5px;}.cls-5{stroke:#7fc8b1;}.cls-49,.cls-51,.cls-6{stroke-width:0.25px;}.cls-32,.cls-7{stroke-width:2px;}.cls-34,.cls-8{stroke-width:3px;}.cls-9{stroke-width:1.5px;}.cls-10,.cls-16,.cls-25{opacity:0.55;}.cls-10{font-size:3.87px;}.cls-10,.cls-16,.cls-25,.cls-47{font-family:Montserrat-SemiBold, Montserrat;font-weight:600;}.cls-11{letter-spacing:-0.03em;}.cls-12{letter-spacing:-0.03em;}.cls-13{letter-spacing:0em;}.cls-14{letter-spacing:-0.01em;}.cls-15{letter-spacing:0em;}.cls-16{font-size:2.7px;}.cls-17{letter-spacing:-0.03em;}.cls-18{letter-spacing:-0.02em;}.cls-19{letter-spacing:-0.01em;}.cls-20{letter-spacing:0em;}.cls-21{letter-spacing:-0.02em;}.cls-22{letter-spacing:-0.02em;}.cls-23{letter-spacing:-0.02em;}.cls-24{letter-spacing:0em;}.cls-25{font-size:6.04px;}.cls-26{letter-spacing:-0.03em;}.cls-27{letter-spacing:-0.01em;}.cls-28{letter-spacing:-0.15em;}.cls-29{letter-spacing:-0.01em;}.cls-30{fill:#90daee;}.cls-33,.cls-45,.cls-46{fill:#fff;}.cls-34{stroke:#17a773;}.cls-35,.cls-39{font-size:8.12px;font-family:Montserrat-Medium, Montserrat;font-weight:500;}.cls-35{fill:#17a773;}.cls-36{letter-spacing:0.02em;}.cls-37{letter-spacing:-0.01em;}.cls-38{letter-spacing:-0.01em;}.cls-39,.cls-43{fill:#f848c7;}.cls-40{letter-spacing:-0.01em;}.cls-41{letter-spacing:-0.02em;}.cls-42{letter-spacing:-0.02em;}.cls-44,.cls-45,.cls-50,.cls-51{stroke:#fff;}.cls-46,.cls-49{stroke:#000;}.cls-46,.cls-50{stroke-width:0.75px;}.cls-47{font-size:7.36px;}.cls-48{letter-spacing:-0.01em;}.cls-49{fill:#093;}.cls-50{fill:#4a6276;}</style></defs><rect class="cls-1" width="340" height="166"/><path class="cls-2" d="M170.86,71.06a6.71,6.71,0,0,0,5.67-1.12c2.56-2,7.6-4.75,2.56-9.16"/><path class="cls-2" d="M124.91,138.09s4.76,3.94,4.88,9.21"/><polyline class="cls-2" points="112.48 134.12 131.84 125.86 133.89 120.3"/><path class="cls-3" d="M71.37.14,92.56,32.35l3.71-2.85,1.44,1.95,9.45-6.59L114,36.09,105.88,41l-3.83,9.15L76.67,68.22,65.56,52.33,69,49.77,54.59,29.09l-3.83-.38V27.56L36.84,26,36,29.79l-21.58-.06a50.72,50.72,0,0,0-5.07-5.9c.48-2,7.77-23.69,7.77-23.69Z"/><path class="cls-2" d="M195.65,40.64l6.22,6.25L193.5,58.81a6.3,6.3,0,0,1-5.44,2.76,2.92,2.92,0,0,1-3-3A5.45,5.45,0,0,1,186.11,55c4.28-5.89,9.89-13.5,9.89-13.5"/><path class="cls-4" d="M139,132.22h0c0-.21.09-.43.15-.64Z"/><polyline class="cls-5" points="103.3 56.83 135.6 67.15 137.6 65.11 140.11 64.85 138.91 49.25 120.28 49.79 106.7 57.96 131.17 89.75 139.57 87.23 141.94 82.45 129.43 69.94 127.06 61.83 138.79 49.51"/><polyline class="cls-5" points="127.06 61.83 120.28 49.79 118.48 46.19"/><polyline class="cls-5" points="135.55 70.89 137.72 72.81 131.17 89.75 129.74 104.28"/><path class="cls-6" d="M133.06,164c-1.19-2.38-3.72-7.31-5.27-9.59a8.67,8.67,0,0,0-.68-.89c-1.34-1.44-15.45-20.89-22.3-30.39l-2-2.73-2,1.33c.62.86,1.27,1.78,2,2.73,6.52,9.13,15.55,21.58,17.73,24.32,1.6,2,4.21,5.9,6.45,9.37,2.43,3.72,4.45,7,4.45,7l1.41.13.88.08ZM38,12.38l-1.78,1.25.31.6c1,.21,2.1.42,3.18.61l-.34-.61Z"/><path class="cls-6" d="M142.13,122.44a111.35,111.35,0,0,1,19.78-40.1c15.63-20.17,36.52-45.54,41-50.15,5.87-6,19.87-29.87,20.72-32.34H211.23l-13.62,24s-50.3-.77-53.19.09S97.27,53,97.27,53L62.12-.15H53l9.53,13.28s-18.9.17-32-4.6-22-8.68-22-8.68H.74s12.2,9.33,35.83,14.23l4.07,7.81s-4.43,2.39-6.3,5.79-.64,8.79.86,10c3.32,2.75,14.29-.24,14.29-.24L65.87,65.91s-.64.52-.19,2a22.68,22.68,0,0,0,1.66,3.58L0,114.4v4.43S68,75.68,70,74.28c1,1.78,24,37.15,26,40.29.56.87,2.43,3.52,4.9,7l2-1.33c-1-1.44-1.67-2.34-1.72-2.43-.34-.6-23.34-35.64-23.34-35.64s.86-8.26,2.1-12c.72-2.16,12.25-7.53,14.62-8.61l29.4,44.72-21.06,13.94,2,2.73,20.91-13.91,8.89,13.51-6.82,31.68c1.55,2.28,4.08,7.21,5.27,9.59.9-4.86,3.39-17.93,6.67-31.76l22.71,33.77h8.28l-28.69-43.12h0C142.08,122.63,142.1,122.54,142.13,122.44ZM36.86,35.92c-1.74-1.27-1.8-7.6.93-9.63a37.68,37.68,0,0,0,3.53-2.75l7.15,12.4S38.6,37.2,36.86,35.92Zm43,28.87a13.14,13.14,0,0,1-12.59-.17L39.75,14.69A145.1,145.1,0,0,0,64.68,17c5.25,7.3,24.41,36.32,26.81,40A78.42,78.42,0,0,1,79.87,64.79ZM100.76,59s41.36-26.55,44.94-27.58,48.17,0,48.17,0L153.36,82.14a79.24,79.24,0,0,0-10,16.09h-5.65L129.57,103C118.53,86.28,100.76,59,100.76,59Zm40.62,44c-1.37,3.56-2.8,7.59-4,11.66-1.13-1.62-3.35-5-6.18-9.22l7-4.65,4.1,0C141.87,101.68,141.74,102.06,141.38,103Z"/><polyline class="cls-7" points="223.46 -1.06 229.19 2.37 229.19 5.74"/><line class="cls-8" x1="145.82" y1="24.35" x2="148.69" y2="-1.21"/><path class="cls-7" d="M209.06,24.3s3.17,2.13,5.9.17,8.53-8.94,8.53-8.94"/><polyline class="cls-2" points="151.62 137.29 161.15 129.49 154.19 118.7 166.89 108.81"/><line class="cls-7" x1="144.83" y1="166.3" x2="157.21" y2="157.06"/><polyline class="cls-9" points="15.77 3.27 8.53 23.95 -3.81 23.41"/><path class="cls-6" d="M127.79,154.4l-.81,3.74L125.29,166h7.41s.05-.26.14-.76c.06-.32.13-.74.22-1.25C131.87,161.61,129.34,156.68,127.79,154.4Zm-26.95-32.68L33.94,166h6.41l62.45-41.55,2-1.33-2-2.73Z"/><text class="cls-10" transform="matrix(0.84, -0.54, 0.54, 0.84, 16.49, 107.52)">в<tspan class="cls-11" x="2.4" y="0">у</tspan><tspan x="4.56" y="0">лиця </tspan><tspan class="cls-12" x="15.97" y="0">К</tspan><tspan class="cls-13" x="18.65" y="0">оперни</tspan><tspan class="cls-14" x="34.31" y="0">к</tspan><tspan class="cls-15" x="36.67" y="0">а</tspan></text><text class="cls-16" transform="matrix(0.83, -0.55, 0.55, 0.83, 55.9, 154.33)">в<tspan class="cls-17" x="1.67" y="0">у</tspan><tspan x="3.18" y="0">лиця Віль</tspan><tspan class="cls-18" x="17.31" y="0">г</tspan><tspan class="cls-19" x="18.6" y="0">е</tspan><tspan class="cls-20" x="20.3" y="0">льма </tspan><tspan class="cls-21" x="28.2" y="0">К</tspan><tspan x="30.1" y="0">атарбінсь</tspan><tspan class="cls-22" x="44.2" y="0">к</tspan><tspan x="45.83" y="0">о</tspan><tspan class="cls-23" x="47.57" y="0">г</tspan><tspan class="cls-24" x="48.86" y="0">о</tspan></text><text class="cls-25" transform="matrix(0.85, -0.52, 0.52, 0.85, 123.33, 42.73)">в<tspan class="cls-26" x="3.74" y="0">у</tspan><tspan x="7.11" y="0">лиця</tspan></text><text class="cls-25" transform="translate(184.27 49.78) rotate(-48.99)">в<tspan class="cls-26" x="3.74" y="0">у</tspan><tspan x="7.11" y="0">лиця</tspan></text><text class="cls-25" transform="matrix(0.55, 0.83, -0.83, 0.55, 107.29, 77.67)">в<tspan class="cls-26" x="3.74" y="0">у</tspan><tspan x="7.11" y="0">лиця</tspan></text><text class="cls-25" transform="matrix(0.55, 0.83, -0.83, 0.55, 120.77, 99.07)">Січових <tspan class="cls-27" x="26.84" y="0">С</tspan><tspan x="31.11" y="0">трільців</tspan></text><text class="cls-25" transform="translate(146.54 29.29)"><tspan class="cls-28">Г</tspan><tspan x="2.63" y="0">либочинсь</tspan><tspan class="cls-29" x="37.95" y="0">к</tspan><tspan x="41.63" y="0">а</tspan></text><text class="cls-25" transform="translate(202.6 27.82) rotate(-59.26)"><tspan class="cls-28">Г</tspan><tspan x="2.63" y="0">либочинсь</tspan><tspan class="cls-29" x="37.95" y="0">к</tspan><tspan x="41.63" y="0">а</tspan></text><path class="cls-9" d="M34.25,96.66l15.22,24.41a2.07,2.07,0,0,0,2.05,1c1.65-.25,4.39-.38,5.26,1.19,1.24,2.22,3.12,5.82,2.84,13a2.08,2.08,0,0,0,.34,1.24c4.24,6.54,4.11,6.43,4.11,6.43"/><polyline class="cls-5" points="120.72 81.98 135.55 70.89 135.6 67.15"/><circle class="cls-30" cx="139.91" cy="67.74" r="2.19"/><path class="cls-5" d="M137.72,72.81h4.09l2.74-4c-.77-2.31-2.15-3.78-4.44-4"/><line class="cls-5" x1="144.55" y1="68.85" x2="156.15" y2="67.51"/><circle class="cls-31" cx="41.04" cy="67.48" r="0.74"/><circle class="cls-31" cx="17.23" cy="86.07" r="0.74"/><circle class="cls-31" cx="88.53" cy="150.81" r="0.75"/><circle class="cls-31" cx="95.42" cy="160.49" r="0.75"/><circle class="cls-31" cx="103.08" cy="133.32" r="0.75"/><circle class="cls-31" cx="166.9" cy="108.8" r="0.5"/><circle class="cls-31" cx="62.57" cy="141.64" r="0.74"/><circle class="cls-31" cx="229.19" cy="5.74" r="1"/><circle class="cls-31" cx="257.12" cy="46.26" r="0.75"/><polyline class="cls-9" points="147.06 13.36 153.88 16.23 159.78 -1.29"/><path class="cls-9" d="M8.53,23.69S18.36,32,17.85,41.4s-4,26.08-.64,44.56"/><path class="cls-9" d="M36,91.84s-7.38-11.12-7.82-19.73c1.72-.58,12.93-4.64,12.93-4.64"/><path class="cls-9" d="M6.31,115l4,6.79s2.68,2.85,7.4-.33,22.63-15,22.63-15"/><line class="cls-7" x1="-0.96" y1="146.51" x2="13.77" y2="170.17"/><path class="cls-9" d="M5.36,156.66l33.49-21.23L33.36,126s-1.66-1.79-3.45-.45S17,134.4,17,134.4s-1.79.71-2.36,3.64-4.47,8.47-4.47,8.47"/><path class="cls-9" d="M38.85,135.43,42,140.84a5.18,5.18,0,0,1-2.3,5.31c-3.06,2-29.52,18.32-29.52,18.32"/><line class="cls-9" x1="65.81" y1="166.3" x2="88.53" y2="150.81"/><path class="cls-7" d="M163.44,155.36l63-46S281.33,66.28,283.24,64"/><circle class="cls-31" cx="283.3" cy="63.97" r="1.02"/><circle class="cls-31" cx="274.45" cy="11.04" r="0.76"/><ellipse class="cls-31" cx="280.76" cy="50.56" rx="0.74" ry="0.77"/><polyline class="cls-9" points="278.48 68.06 269.47 58.38 280.7 50.6"/><line class="cls-9" x1="95.2" y1="166.5" x2="95.42" y2="160.44"/><path class="cls-9" d="M195.3,132.11,185.4,119a6.84,6.84,0,0,1,.77-4.21c1.15-1.79-.13-4.6-.13-4.6-.3-.44,14.21-17,20.81-17.17a8.57,8.57,0,0,1,6.77,3.51l11.72,13.65,42.26,37.54-4.94,20.6"/><path class="cls-9" d="M267.6,147.74l19.83-50.46s4.34-16,5-28.17.68-13.11.68-13.11,17.76-6,20.44-7.7,10-9.19,12.45-13.85S348.13-1.36,350.5-2.64"/><polyline class="cls-9" points="293.13 56 292.57 4.74 297.43 -5.45"/><path class="cls-9" d="M292.58,5.11H282.15A2.9,2.9,0,0,0,279.81,8c-.07,2.08,0,15.11,0,20.23a4.56,4.56,0,0,0,2,3.78c1.4.93,3.28,1.61,4.79,0a4.38,4.38,0,0,0,1.1-2.92c.13-6.91.28-23.63.28-23.63"/><line class="cls-9" x1="279.78" y1="11.05" x2="274.45" y2="11.05"/><path class="cls-32" d="M176.3,146.87S188.66,162.3,189.23,166"/><path class="cls-9" d="M202.66,127.91s15.74,19.13,22,20.66c1.85.2,5.11-1.27,8-4.59s13.83-15,13.83-15"/><line class="cls-9" x1="210.15" y1="136.43" x2="224.32" y2="124.55"/><circle class="cls-31" cx="224.25" cy="124.6" r="0.75"/><path class="cls-9" d="M285.75,101.54l-7.69-3.24s-1.7-.84-3,1.62-6.81,11.57-12.94,17.19L258.4,121"/><circle class="cls-31" cx="258.39" cy="121.05" r="0.75"/><circle class="cls-31" cx="270.52" cy="121.18" r="0.75"/><circle class="cls-31" cx="237.31" cy="49.7" r="0.75"/><line class="cls-9" x1="270.52" y1="121.18" x2="264.02" y2="115.87"/><circle class="cls-31" cx="265.09" cy="124.52" r="0.75"/><circle class="cls-31" cx="288.87" cy="157.49" r="0.5"/><circle class="cls-31" cx="330.46" cy="124.54" r="0.5"/><line class="cls-9" x1="265.09" y1="124.52" x2="273.97" y2="130.86"/><path class="cls-9" d="M239.81,166.43s15.66-23.71,18.68-26.26"/><polyline class="cls-9" points="258.39 84.17 249.04 71.06 227.94 85.96"/><path class="cls-9" d="M249,71.06s1.15-1.49-1.4-5-5.07-7.15-5.07-7.15L223.63,72"/><path class="cls-9" d="M231.47,66.55l-2.78-4.66s-1.48-3.19.76-5.49,6.38-6.06,7.78-6.63"/><path class="cls-2" d="M277.74,121.93,305.21,134s5.31,4,2.6,7.65a4.71,4.71,0,0,1-4.74,1.75c-7.75-1.56-20.45-6.83-20.45-6.83s-1.19-.95-2.94,2.41S268.57,159.45,267,166"/><polyline class="cls-2" points="286.01 137.92 284.23 142.09 279.22 139.86"/><polyline class="cls-2" points="284.23 142.09 292.75 145.13 294.3 140.78"/><line class="cls-2" x1="292.75" y1="145.13" x2="288.87" y2="157.49"/><path class="cls-2" d="M292.91,166.43s0-4.91,7.28-8.44,18.3-11.1,19.24-14.42c.59-1.95-1.13-6.61-2.41-8.66a8.32,8.32,0,0,1,3.68-11.68c4.3-3.57,5.15-3.61,4.51-9.06S324.45,93.86,325,92c.77-2.65,4.47-6.81,9.87-7.24,5.58.39,17.07,2,17.07,2"/><path class="cls-2" d="M319.52,142s3.92-3.16,4.87-5.59,3.48-11.29,6.07-11.87"/><path class="cls-2" d="M342,113.47s-9.16-1.22-10.35-2.11c-3.34-2.52-.52-5.79,4-6.13a27.42,27.42,0,0,1,7.11.22"/><path class="cls-2" d="M292.57,71.06l37.28,5.26s2.62.38,3.58-4.41,3.25-14.42,1.46-23.74C334.89,48,323.68,38,323.68,38"/><path class="cls-9" d="M292.91,36s4.09-3.87,7.28-4.3,12.6-5.19,14.38-8.34"/><circle class="cls-31" cx="314.56" cy="23.4" r="0.76"/><path class="cls-9" d="M293.08,51.91s-10-2.21-11.95-6.46-6.22-22.64-12.94-26.38a90.09,90.09,0,0,0-14-6.13l5.28-14"/><path class="cls-9" d="M254.15,12.94l-7.09,24.7s-2.1,4.85,2.88,6.45,7.15,2.17,7.15,2.17"/><path class="cls-2" d="M292.91,62s26.86-.59,30.52-2.3,12-7,12-7"/><polyline class="cls-2" points="293.08 20.68 321.98 4.51 321.98 -3.49"/><path class="cls-2" d="M322,4.51S324.36,8.4,330.3,8s6.25-.45,6.25-.45l6.9-9.38"/><line class="cls-2" x1="336.55" y1="7.51" x2="351.36" y2="19.54"/><path class="cls-2" d="M328.56,30.09s3.14,1.08,5.18-.41,9.71-8.51,9.71-8.51a3,3,0,0,1,3.95.32c2,1.85,4.41,4,4.41,4"/><path class="cls-2" d="M334.89,48.17s4.71-2.81,5.9,0,4.59,12,4.59,12L352,61.4"/><line class="cls-2" x1="345.38" y1="60.21" x2="335.55" y2="60.21"/><polyline class="cls-2" points="131.84 125.86 126.62 131.02 122.91 129.67"/><polyline class="cls-2" points="126.62 131.02 124.92 138.09 118.69 142.24"/><path class="cls-9" d="M117.28,166s2.44-4.56-4.26-15.94-9.89-16.68-9.89-16.68"/><circle class="cls-33" cx="222.28" cy="77.66" r="6.81"/><path class="cls-33" d="M222.28,79.06h3.85a1.49,1.49,0,0,1,1.48,1.59l-.06.84a1.52,1.52,0,0,1-.43,1l-3.79,3.77a1.49,1.49,0,0,1-2.1,0l-3.77-3.77a1.49,1.49,0,0,1-.43-.93l-.06-.85a1.48,1.48,0,0,1,1.47-1.6Z"/><circle class="cls-34" cx="222.28" cy="77.66" r="3.68"/><text class="cls-35" transform="translate(232.72 80.67)">Spo<tspan class="cls-36" x="15.75" y="0">r</tspan><tspan class="cls-37" x="19.2" y="0">t</tspan><tspan x="22.5" y="0">&amp;S</tspan><tspan class="cls-38" x="33.12" y="0">p</tspan><tspan x="38.62" y="0">a</tspan></text><text class="cls-39" transform="translate(262.37 154.6)">Sa<tspan class="cls-40" x="9.9" y="0">c</tspan><tspan class="cls-41" x="14.49" y="0">vo</tspan><tspan class="cls-42" x="23.94" y="0">y</tspan><tspan x="28.35" y="0">age</tspan></text><circle class="cls-33" cx="316.44" cy="151.94" r="6.81"/><path class="cls-33" d="M316.44,153.34h3.86a1.49,1.49,0,0,1,1.48,1.58l-.06.84a1.48,1.48,0,0,1-.44,1l-3.79,3.78a1.48,1.48,0,0,1-2.09,0l-3.77-3.76a1.49,1.49,0,0,1-.43-.93l-.07-.85a1.49,1.49,0,0,1,1.48-1.6Z"/><circle class="cls-43" cx="316.44" cy="151.94" r="5.81"/><line class="cls-44" x1="319.57" y1="150.14" x2="319.57" y2="153.65"/><polyline class="cls-44" points="313.74 149.53 313.74 152.35 313.74 153.65"/><path class="cls-45" d="M313.74,152.33H319v-.94l-1.69-.5c-.28,0-.66,0-.66.23v1.21"/><circle class="cls-33" cx="315.19" cy="150.87" r="0.65"/><rect class="cls-46" x="7.17" y="14.68" width="69.77" height="11.15"/><text class="cls-47" transform="translate(10.26 22.31)">Лук’янівсь<tspan class="cls-48" x="41.5" y="0">к</tspan><tspan x="45.98" y="0">а</tspan></text><polygon class="cls-49" points="72.38 23.09 70.62 23.09 69.58 20.42 68.01 23.86 66.43 20.42 65.39 23.09 63.63 23.09 66.25 16.65 68.01 19.53 69.77 16.65 72.38 23.09"/><circle class="cls-50" cx="53.91" cy="48.44" r="3.8"/><line class="cls-51" x1="52.59" y1="50.2" x2="53.13" y2="49.66"/><line class="cls-51" x1="53.92" y1="47.05" x2="53.92" y2="46.68"/><line class="cls-51" x1="53.21" y1="46.56" x2="54.62" y2="46.56"/><line class="cls-51" x1="55.24" y1="50.2" x2="54.7" y2="49.66"/><path class="cls-33" d="M55,47h-2.1a.52.52,0,0,0-.51.51v1.74a.52.52,0,0,0,.51.51H55a.51.51,0,0,0,.51-.51V47.5A.51.51,0,0,0,55,47Zm-1.07,2.47a.36.36,0,0,1-.36-.36.36.36,0,0,1,.72,0A.36.36,0,0,1,53.89,49.46Zm1.28-1.32a.29.29,0,0,1-.28.29H53a.29.29,0,0,1-.3-.29v-.58a.29.29,0,0,1,.3-.29h1.93a.29.29,0,0,1,.28.29Z"/><circle class="cls-50" cx="103.87" cy="45.31" r="3.8"/><line class="cls-51" x1="102.55" y1="47.07" x2="103.09" y2="46.53"/><line class="cls-51" x1="103.87" y1="43.92" x2="103.87" y2="43.54"/><line class="cls-51" x1="103.17" y1="43.42" x2="104.58" y2="43.42"/><line class="cls-51" x1="105.19" y1="47.07" x2="104.65" y2="46.53"/><path class="cls-33" d="M104.91,43.86h-2.1a.52.52,0,0,0-.51.51v1.74a.52.52,0,0,0,.51.51h2.1a.51.51,0,0,0,.51-.51V44.37A.51.51,0,0,0,104.91,43.86Zm-1.07,2.47a.36.36,0,0,1-.36-.36.36.36,0,0,1,.72,0A.36.36,0,0,1,103.84,46.33ZM105.12,45a.29.29,0,0,1-.28.29h-1.93a.29.29,0,0,1-.3-.29v-.58a.29.29,0,0,1,.3-.29h1.93a.29.29,0,0,1,.28.29Z"/><circle class="cls-50" cx="99.5" cy="75.09" r="3.8"/><line class="cls-51" x1="98.24" y1="76.79" x2="98.78" y2="76.25"/><line class="cls-51" x1="100.76" y1="76.79" x2="100.22" y2="76.25"/><path class="cls-33" d="M100.39,73.7h-1.8a.47.47,0,0,0-.43.49v1.66a.47.47,0,0,0,.43.49h1.8a.46.46,0,0,0,.43-.49V74.19A.46.46,0,0,0,100.39,73.7Zm-1.48,2.16a.21.21,0,0,1-.21-.21.21.21,0,0,1,.21-.22.22.22,0,0,1,.22.22A.21.21,0,0,1,98.91,75.86Zm1.17,0a.21.21,0,0,1-.22-.21.22.22,0,0,1,.22-.22.21.21,0,0,1,.21.22A.21.21,0,0,1,100.08,75.86Zm.28-1c0,.1-.18.18-.33.18H98.91c-.14,0-.34-.08-.34-.18V74.5c0-.1.2-.18.34-.18H100c.15,0,.33.08.33.18Z"/></svg>